<?xml version="1.0" encoding="utf-8"?>
<!-- Generator: Adobe Illustrator 23.1.1, SVG Export Plug-In . SVG Version: 6.00 Build 0)  -->
<svg version="1.1" xmlns="http://www.w3.org/2000/svg" xmlns:xlink="http://www.w3.org/1999/xlink" x="0px" y="0px"
	 viewBox="0 0 311.4 116.9" enable-background="new 0 0 311.4 116.9" xml:space="preserve">
<g id="scan" display="none" opacity="0.5">
	
		<image display="inline" overflow="visible" width="3264" height="2448" xlink:href="6711FE60F1D88EEE.jpg"  transform="matrix(0.1814 0 0 0.1814 537.2365 -2800.3979)">
	</image>
</g>
<g id="art">
	<path fill="#231F20" d="M290.1,74.2l2.4,4.6l-2.3,1.2c-4.7,2.4-8.1,3.2-10.7,3.2c-2.6,0-4.3-0.9-5.4-1.9c-1.4-1.4-2.1-3.3-1.9-5.6
		c-3.1,1.8-6.2,2.6-8.9,2.8c-0.4,0-0.8,0-1.1,0c-4.6,0-8.6-1.9-10.8-5.3c-0.1-0.2-0.2-0.3-0.3-0.5l-0.7,0.4
		c-10.8,5.4-17.5,6.4-21,3.1c-0.5-0.5-0.9-1-1.2-1.6c-4.4,4.6-9.8,6.6-14.2,6.9c-0.4,0-0.8,0-1.1,0c-4.4,0-8.2-1.7-10.5-4.8
		c-3,2.7-6.4,5.1-9.6,6.6c-2.6,1.2-5,1.9-7.1,1.9c-1.7,0-3.1-0.4-4.3-1.2c-4.5-3.2-3.8-10.7,2.2-23.2c2.1-4.3,1.4-7.6-1.9-9.2
		c-4.9-2.4-14.5-0.6-19.9,8.6l-11.2,23.2l-4.7-2.3l9.2-19.1l-0.1,0l1.1-2.3c0.3-0.6,0.6-1.2,1-1.8l17.8-36.7l4.9,0.8
		c0.8,5.3,4.9,7.7,8.6,8.3c4.3,0.6,10.5-1,13.7-7.7c1.3-2.8,2-7.3-0.4-10.9c-2.8-4.2-9.1-6.1-18.2-5.6c-13.6,0.8-26.3,6.3-37,15.9
		c-10,9-17,20.9-19.9,33.5c-1.5,6.5-1.7,12.2-0.8,17.3l0,0l0,0c1,5.4,3.3,9.9,6.9,13.6c13.3,13.6,44.5,15.8,90.4,6.4
		c37.3-8.2,51.6,0.9,59.3,5.7l2.7,1.7l-2.8,4.4l-2.7-1.7c-7-4.5-20.2-12.7-55.4-5c-48.4,9.9-80.4,7.3-95.2-7.8
		c-3.4-3.5-5.8-7.7-7.3-12.4c-5.6,4.9-15.3,7.9-24.1,7.9c-4.2,0-8.3-0.7-11.6-2.2c-4.6-2-11.9-7.3-9.3-19.9l0-0.1
		C79.9,49.6,90,44.6,98.4,45.8c6.8,1,11.5,5.7,11.2,11.3c-0.2,5.1-2.9,7.7-5,9.1c-3.9,2.5-9.9,2.6-15.1,0.3l-2.4-1l2.1-4.8l2.4,1
		c3.7,1.6,7.8,1.6,10.3,0.1c1.6-1,2.5-2.6,2.6-4.9c0.1-3.2-3.3-5.4-6.8-5.9c-5.7-0.8-13.3,2.3-16.1,13.7c-1.4,6.8,0.7,11.5,6.3,14
		c8.6,3.8,26.4,1,32.1-6.8l0.3-0.4c-0.6-5.2-0.2-11,1.2-17.2c3.1-13.6,10.7-26.4,21.5-36.2C154.4,7.7,168.3,1.7,183,0.9
		c13.9-0.8,20.1,3.9,22.8,7.9c3.6,5.4,2.8,11.8,0.8,16c-4.1,8.7-12.6,11.6-19.1,10.6c-4.6-0.7-8.4-3.1-10.7-6.6l-9.2,19
		c0.5-0.2,1-0.5,1.5-0.7c5.1-2,10.5-2,14.6-0.1c6,2.9,7.7,9.2,4.4,16.1c-5.5,11.4-5,15.9-3.9,16.6c1.8,1.3,9.4-1.6,15.8-8.1l0.1-0.1
		c-0.4-3,0.1-7,2.8-12.3c2.9-5.5,7.1-9.6,12.3-11.8c4.4-1.9,9.3-2.3,13.5-1.1c5.3,1.5,8.4,5.3,8.1,9.7c-0.1,0.8-0.2,1.7-0.5,2.5
		l-0.9,2.5l-4.9-1.7l0.9-2.5c0.1-0.4,0.2-0.8,0.3-1.1c0.2-2.8-3.3-4.1-4.4-4.4c-6.2-1.8-15,1.2-19.8,10.3c-2.6,5-3.1,9.2-1.3,11.8
		c1.3,2.1,4,3.1,7.3,2.9c4.7-0.3,11.1-3.4,14.8-11.2l4.8,2.1c-0.6,1.6-1.1,4.4-0.3,5.1c0.3,0.2,2.9,2.2,15.1-4l1.6-0.8
		c-0.2-2.9,0.4-6.7,2.9-11.5c7-13.5,20.5-15,27.8-11.8l-2.1,4.8c-5.5-2.4-15.6-1.1-21.1,9.4c-2.6,5-3.1,9.2-1.3,11.8
		c1.3,2.1,4,3.1,7.3,2.9c4.7-0.3,11.1-3.4,14.8-11.2l23-47.4c-13.1,10.8-25.2,15.8-33.8,18.2c-13.2,3.7-25.8,3.2-34.5-1.3
		c-7.8-4.1-11.6-11.2-10.1-18.9c1.1-5.7,4.8-9.9,10.2-11.4c6-1.7,12.7,0.3,17.1,5.1l1.8,1.9l-3.8,3.5l-1.8-1.9
		c-3.1-3.4-7.8-4.8-11.9-3.6c-3.5,1-5.8,3.6-6.5,7.4c-1.5,7.5,4,11.6,7.4,13.3c15.4,8,46,1.9,72.3-25.3l4.2,2.9l-29,59.8l0,0
		c0,0,0,0,0,0l-4,8.2c-1.2,2.5-1.3,4.4-0.7,5c0.7,0.7,3.6,1,10.1-2.2L290.1,74.2z M102.2,31.3c-6.5,0.2-12.3-0.3-17.3-1.4l-2.3,4.9
		c5.3,1.3,11.9,2,19.9,1.7l0.1,0c16.2-1.4,24.5-12.3,24.1-21.9c-0.3-6.4-4.8-13.8-16.8-13.8C90.3,0.9,79.1,18.4,75,26.4
		c-3.4-1.9-6.1-4.3-8-7.1C63.5,13.9,63.6,8,65.2,4.6l1.1-2.3L61.7,0l-1.1,2.3c-2.3,4.8-2.5,12.7,2.1,19.8c2,3.1,5.2,6.4,10.1,9
		L48.6,79.4c-11.5-5.1-20.8-4.3-26.8-2.6c-8.2,2.3-15,7.6-18.9,14.6c-5.2,9.3-3.3,18.8,4.5,23.2c2.7,1.5,5.5,2.2,8.4,2.2
		c1.7,0,3.5-0.3,5.3-0.8c11.5-3.3,21.7-16.9,27.1-25.3c-1.5-0.8-3.1-1.6-4.8-2.3c-5.1,7.8-14.2,19.7-23.8,22.5c-3.5,1-6.6,0.7-9.6-1
		c-4-2.3-7.1-7.9-2.5-16.1c3.6-6.5,12-13.2,23.8-13.2c4.5,0,9.5,1,14.9,3.3c0,0,0,0,0,0c2.5,1.1,4.9,2.4,6.9,3.5
		c27.6,15,40.5,19,59.2,13l2.5-0.8l-1.6-5l-2.5,0.8c-16.5,5.3-27.3,2.7-57.3-13.8l23.9-47.7l2.8-5.7l0,0c3.8-7.3,13.8-22.3,30-22.3
		c7,0,11.3,3.3,11.6,8.8C121.9,24.1,112,30.5,102.2,31.3z"/>
</g>
<g id="guides" display="none">
	
		<line display="inline" fill="none" stroke="#00AEEF" stroke-width="0.5" stroke-miterlimit="10" x1="657.5" y1="-2466.6" x2="753.1" y2="-2663.9"/>
	
		<line display="inline" fill="none" stroke="#00AEEF" stroke-width="0.5" stroke-miterlimit="10" x1="753.1" y1="-2466.6" x2="848.8" y2="-2663.9"/>
	
		<line display="inline" fill="none" stroke="#00AEEF" stroke-width="0.5" stroke-miterlimit="10" x1="684.9" y1="-2466.6" x2="780.6" y2="-2663.9"/>
	
		<line display="inline" fill="none" stroke="#00AEEF" stroke-width="0.5" stroke-miterlimit="10" x1="724.9" y1="-2466.6" x2="820.6" y2="-2663.9"/>
	
		<line display="inline" fill="none" stroke="#00AEEF" stroke-width="0.5" stroke-miterlimit="10" x1="801" y1="-2466.6" x2="896.6" y2="-2663.9"/>
	
		<line display="inline" fill="none" stroke="#00AEEF" stroke-width="0.5" stroke-miterlimit="10" x1="848.8" y1="-2466.6" x2="944.5" y2="-2663.9"/>
	
		<line display="inline" fill="none" stroke="#00AEEF" stroke-width="0.5" stroke-miterlimit="10" x1="915.9" y1="-2466.6" x2="1011.6" y2="-2663.9"/>
	
		<line display="inline" fill="none" stroke="#00AEEF" stroke-width="0.5" stroke-miterlimit="10" x1="991.8" y1="-2466.6" x2="1087.5" y2="-2663.9"/>
	<path display="inline" fill="none" stroke="#00AEEF" stroke-width="0.5" stroke-miterlimit="10" d="M799.6-2595.4
		c-11.2,49,18,90,153,62.3c70.3-13,95,13.3,95,13.3"/>
	
		<line display="inline" fill="none" stroke="#00AEEF" stroke-width="0.5" stroke-miterlimit="10" x1="110.6" y1="174.7" x2="257.1" y2="-130.3"/>
	
		<line display="inline" fill="none" stroke="#00AEEF" stroke-width="0.5" stroke-miterlimit="10" x1="181.3" y1="174.7" x2="327.8" y2="-130.3"/>
	
		<line display="inline" fill="none" stroke="#00AEEF" stroke-width="0.5" stroke-miterlimit="10" x1="153.6" y1="174.7" x2="300" y2="-130.3"/>
	
		<line display="inline" fill="none" stroke="#00AEEF" stroke-width="0.5" stroke-miterlimit="10" x1="223.7" y1="174.7" x2="370.2" y2="-130.3"/>
	
		<line display="inline" fill="none" stroke="#00AEEF" stroke-width="0.5" stroke-miterlimit="10" x1="249" y1="174.7" x2="395.5" y2="-130.3"/>
	
		<line display="inline" fill="none" stroke="#00AEEF" stroke-width="0.5" stroke-miterlimit="10" x1="282.9" y1="174.7" x2="429.4" y2="-130.3"/>
	
		<line display="inline" fill="none" stroke="#00AEEF" stroke-width="0.5" stroke-miterlimit="10" x1="299.7" y1="174.7" x2="446.2" y2="-130.3"/>
	
		<line display="inline" fill="none" stroke="#00AEEF" stroke-width="0.5" stroke-miterlimit="10" x1="-38.6" y1="174.7" x2="107.9" y2="-130.3"/>
	
		<line display="inline" fill="none" stroke="#00AEEF" stroke-width="0.5" stroke-miterlimit="10" x1="51" y1="174.7" x2="197.5" y2="-130.3"/>
	
		<line display="inline" fill="none" stroke="#00AEEF" stroke-width="0.5" stroke-miterlimit="10" x1="-8.3" y1="174.7" x2="138.2" y2="-130.3"/>
	
		<line display="inline" fill="none" stroke="#00AEEF" stroke-width="0.5" stroke-miterlimit="10" x1="27" y1="174.7" x2="173.5" y2="-130.3"/>
	
		<line display="inline" fill="none" stroke="#00AEEF" stroke-width="0.5" stroke-miterlimit="10" x1="-8.3" y1="67.7" x2="407.7" y2="67.7"/>
	<path display="inline" fill="none" stroke="#00AEEF" stroke-width="0.5" stroke-miterlimit="10" d="M112,28.3
		c-11.2,49,18,90,153,62.3c51-9.4,78,1.8,89,8.7"/>
	<path display="inline" fill="none" stroke="#00AEEF" stroke-width="0.5" stroke-miterlimit="10" d="M112-24.3
		c-11.2,49,18,90,153,62.3c51-9.4,78,1.8,89,8.7"/>
	
		<line display="inline" fill="none" stroke="#00AEEF" stroke-width="0.5" stroke-miterlimit="10" x1="-8.3" y1="-30.8" x2="407.7" y2="-30.8"/>
	
		<line display="inline" fill="none" stroke="#00AEEF" stroke-width="0.5" stroke-miterlimit="10" x1="-8.3" y1="22.6" x2="407.7" y2="22.6"/>
	
		<line display="inline" fill="none" stroke="#00AEEF" stroke-width="0.5" stroke-miterlimit="10" x1="-8.3" y1="38.7" x2="407.7" y2="38.7"/>
	
		<line display="inline" fill="none" stroke="#00AEEF" stroke-width="0.5" stroke-miterlimit="10" x1="-8.3" y1="126.8" x2="407.7" y2="126.8"/>
	
		<line display="inline" fill="none" stroke="#00AEEF" stroke-width="0.5" stroke-miterlimit="10" x1="-8.3" y1="99.6" x2="407.7" y2="99.6"/>
</g>
</svg>
