<svg width="24" height="24" viewBox="0 0 24 24" fill="none" xmlns="http://www.w3.org/2000/svg">
<g clip-path="url(#clip0_2038_26)">
<mask id="mask0_2038_26" style="mask-type:alpha" maskUnits="userSpaceOnUse" x="0" y="0" width="24" height="24">
<rect width="24" height="24" fill="#D9D9D9"/>
</mask>
<g mask="url(#mask0_2038_26)">
<path fill-rule="evenodd" clip-rule="evenodd" d="M21 21H3V3H21V21ZM16.8936 5.19238C16.0677 5.27834 15.2388 5.33747 14.4092 5.37012C14.0784 5.38045 13.7185 5.37398 13.3857 5.37402H11.5859C9.63079 5.38565 7.67523 5.36657 5.7207 5.31641C5.72114 5.5654 5.71869 5.82168 5.72266 6.07031C5.95849 6.11268 6.19674 6.168 6.43164 6.21777C6.68537 6.27154 6.9459 6.31506 7.18652 6.41406C7.4261 6.51264 7.54479 6.69823 7.5625 6.9541C7.58238 7.24147 7.58485 7.53038 7.59277 7.81836C7.60932 8.38204 7.62042 8.94588 7.62695 9.50977C7.65184 11.2284 7.65266 12.9473 7.62793 14.666C7.6208 15.2655 7.60807 15.8655 7.59082 16.4648C7.5836 16.7228 7.58705 17.049 7.55176 17.2988C7.47324 17.854 6.73284 17.8972 6.30371 18.0059C6.12274 18.0516 5.90473 18.097 5.71973 18.1328C5.72294 18.3815 5.72395 18.6302 5.72266 18.8789C7.44575 18.8257 9.16967 18.804 10.8936 18.8125C12.0585 18.8085 13.2237 18.8109 14.3887 18.8193L16.915 18.8691L16.916 15.2422L16.9111 15.251C16.8595 15.3466 16.7998 15.4891 16.7529 15.5928L16.4326 16.3037C16.0484 17.1552 15.716 17.6661 14.7178 17.8184C14.3498 17.8626 14.0202 17.8555 13.6504 17.8555H11.498C11.042 17.8559 10.4886 17.8877 10.1094 17.5947C9.7144 17.2896 9.76254 16.7204 9.7627 16.2773L9.76367 15.29C9.76377 14.35 9.749 13.3745 9.76367 12.4375C10.4116 12.4364 11.0603 12.4451 11.708 12.4639C12.0734 12.4768 12.4729 12.4829 12.8271 12.5684C13.548 12.7426 13.56 13.6409 13.709 14.2227C13.7201 14.2661 13.7306 14.3216 13.7373 14.3643L14.5645 14.3633L14.5166 12.7656C14.5051 12.3748 14.4814 11.9846 14.5078 11.5947C14.5198 11.4165 14.5288 11.2371 14.5391 11.0586L14.6289 9.49023C14.3564 9.4883 14.084 9.48821 13.8115 9.48926L13.5654 10.4717C13.5116 10.6886 13.4739 10.9522 13.3711 11.1465C13.3221 11.2381 13.2482 11.3143 13.1582 11.3662C12.8307 11.5593 12.1542 11.5698 11.7822 11.584C11.3813 11.5983 10.9802 11.6083 10.5791 11.6133C10.3148 11.6158 10.0266 11.6119 9.76367 11.6211L9.7627 7.09863C9.7627 6.90716 9.76166 6.70354 9.76465 6.51074C9.7671 6.3553 9.78746 6.29256 9.96484 6.2793C10.1529 6.26524 10.3504 6.27034 10.543 6.27051H14.4043C15.4971 6.27825 15.6717 7.45438 15.9043 8.26855L16.0586 8.80469C16.0819 8.88543 16.1204 9.00328 16.1367 9.08203H16.8906C16.8995 8.80555 16.9063 8.52851 16.9121 8.25195C16.9161 7.93659 16.9274 5.23844 16.9062 5.19336L16.8936 5.19238Z" fill="#1C1B1F"/>
</g>
</g>
<defs>
<clipPath id="clip0_2038_26">
<rect width="24" height="24" fill="white"/>
</clipPath>
</defs>
</svg>
