<svg width="24" height="24" viewBox="0 0 24 24" fill="none" xmlns="http://www.w3.org/2000/svg">
<g clip-path="url(#clip0_2061_22)">
<mask id="mask0_2061_22" style="mask-type:alpha" maskUnits="userSpaceOnUse" x="0" y="0" width="24" height="24">
<rect width="24" height="24" fill="#D9D9D9"/>
</mask>
<g mask="url(#mask0_2061_22)">
<path d="M11.8516 3.00125C16.8192 2.91933 20.9134 6.87808 20.9986 11.8456C21.084 16.813 17.1279 20.9099 12.1605 20.9985C7.18839 21.0872 3.08669 17.1266 3.00135 12.1545C2.91601 7.18226 6.87937 3.08325 11.8516 3.00125ZM15.5739 10.6875C15.9775 10.834 16.375 10.9968 16.7655 11.1753C16.9102 11.2419 17.0539 11.3107 17.1966 11.3815C17.5584 11.5618 17.8319 11.7376 18.2455 11.5449C18.4543 11.4473 18.6151 11.2698 18.6915 11.0524C18.7674 10.8399 18.7553 10.606 18.6577 10.4026C18.599 10.2787 18.5107 10.171 18.4009 10.0889C18.2822 10.0003 18.0278 9.88147 17.8848 9.81179C17.2581 9.50522 16.6138 9.2361 15.9552 9.00585C14.235 8.40593 12.4335 8.07114 10.6126 8.01295C10.2975 8.00251 9.93309 8.0063 9.61681 8.01019C8.73236 8.0318 7.85076 8.11938 6.97935 8.27219C6.6466 8.33086 6.31372 8.35107 6.06831 8.60707C5.91203 8.7721 5.82775 8.99248 5.83404 9.21967C5.84011 9.44733 5.93675 9.66316 6.10252 9.81932C6.5067 10.2002 6.95902 10.0076 7.4392 9.92857C7.8639 9.85885 8.29119 9.80601 8.72008 9.77018C11.0441 9.57909 13.382 9.89199 15.5739 10.6875ZM14.675 13.3311C15.0463 13.4681 15.4114 13.6213 15.7694 13.7902C15.9008 13.8526 16.031 13.9176 16.1597 13.9854C16.2825 14.0495 16.4355 14.1406 16.5671 14.1719C16.7142 14.2075 16.8691 14.1922 17.0065 14.1286C17.1755 14.051 17.3144 13.905 17.3774 13.7292C17.4394 13.555 17.429 13.3631 17.3487 13.1964C17.3012 13.098 17.2317 13.0119 17.1453 12.945C17.0473 12.8705 16.8125 12.7574 16.6952 12.6983C16.1018 12.3975 15.4884 12.138 14.8594 11.9215C13.5808 11.4823 12.2479 11.2205 10.8981 11.1432C10.5298 11.1206 10.0235 11.1043 9.65428 11.1262C8.86722 11.1451 8.08309 11.2291 7.30991 11.3775C7.17059 11.404 6.90743 11.4506 6.78727 11.4971C6.70198 11.531 6.62489 11.5826 6.56111 11.6486C6.42901 11.7819 6.35649 11.9629 6.36003 12.1506C6.36418 12.3376 6.44321 12.5151 6.57939 12.6433C6.8272 12.8752 7.05642 12.8455 7.35965 12.7834C7.48928 12.7568 7.61911 12.7313 7.74915 12.7068C8.07924 12.6492 8.41136 12.6039 8.74482 12.571C10.7535 12.3742 12.7808 12.634 14.675 13.3311ZM13.9695 15.6983C14.2924 15.8235 14.6096 15.9629 14.9202 16.116C15.0001 16.1561 15.0835 16.1998 15.1622 16.244C15.399 16.3769 15.6264 16.5388 15.9054 16.411C16.0352 16.3515 16.1464 16.2306 16.1928 16.0952C16.2393 15.9572 16.2276 15.8063 16.1607 15.677C16.1286 15.6152 16.0843 15.5606 16.0305 15.5165C15.9379 15.4407 15.7232 15.333 15.6121 15.2748C14.951 14.9254 14.2578 14.6401 13.5423 14.4229C12.4268 14.0824 11.267 13.909 10.1006 13.9084C9.93771 13.9083 9.70079 13.9029 9.53986 13.9148C8.90278 13.9435 8.26898 14.0226 7.6444 14.1514C7.43966 14.1935 7.13776 14.2323 6.98968 14.3909C6.89153 14.4979 6.84026 14.6398 6.84725 14.7849C6.85575 14.9305 6.9231 15.0665 7.03382 15.1614C7.29745 15.3871 7.61297 15.246 7.91646 15.184C8.1994 15.1268 8.48447 15.0808 8.77102 15.0459C10.2209 14.8752 11.6903 14.9965 13.0926 15.4026C13.3648 15.4815 13.7062 15.5905 13.9695 15.6983Z" fill="black"/>
</g>
</g>
<defs>
<clipPath id="clip0_2061_22">
<rect width="24" height="24" fill="white"/>
</clipPath>
</defs>
</svg>
