<?xml version="1.0" encoding="utf-8"?>
<!-- Generator: Adobe Illustrator 23.1.1, SVG Export Plug-In . SVG Version: 6.00 Build 0)  -->
<svg version="1.1" xmlns="http://www.w3.org/2000/svg" xmlns:xlink="http://www.w3.org/1999/xlink" x="0px" y="0px"
	 viewBox="0 0 43.8 42.5" enable-background="new 0 0 43.8 42.5" xml:space="preserve">
<g id="_x34__x5F_COL_x5F_SQ">
	<g>
		<path fill="#2E71B2" d="M41.8,31.4l-3.4,0v-0.2c-0.4,0.2-0.8,0.2-1.2,0.2c0,0-0.1,0-0.2,0l-2,0v0h-4.9v0h-3.3v-1c0,0,0-0.7,0-0.8
			c0,0-0.1,0-0.2,0c0,0.4,0,1.8,0,1.8h-3.4v-2c-0.6,0.2-1.2,0.3-1.8,0.3c0,0-0.2,0-0.3,0c0,0.3,0,1.7,0,1.7h-4c0,0-0.6-0.7-1-1.1
			c-0.3,0.4-1,1.1-1,1.1H8.8v-7.3h6.4c0,0,0.7,0.8,1.1,1.2c0.4-0.4,1.1-1.2,1.1-1.2h0.4l1,0h3.2c0.2,0,0.7,0,1.2,0.2v-0.2h4.2
			c0.2,0,0.7,0,1.3,0.2v-0.2H34h1v0.2c0.6-0.2,1.1-0.2,1.2-0.2l3.5,0v0.2c0.6-0.2,1.1-0.2,1.2-0.2l2.5,0V0H0.1v18.7l1.5-3.5h3.2
			c0,0,0.4,0.9,0.4,0.9c0-0.1,0-0.9,0-0.9H9c0,0,0.6,1.3,0.8,1.9c0.3-0.6,0.8-1.9,0.8-1.9h2.5h0.3h1h3.7h0.3h1h2.9
			c0.2,0,0.7,0,1.3,0.2v-0.2H26h1v0.4c0.5-0.3,1.1-0.5,1.6-0.5c0,0,1.8,0,1.9,0.1l0,0h3.2c0,0,0.3,0.8,0.4,0.9c0-0.2,0-0.9,0-0.9
			h3.5c0,0,0.5,0.8,0.6,0.9c0-0.1,0-0.9,0-0.9h3.4v7.3H38c0,0-0.5-0.8-0.6-1c0,0.1,0,1,0,1h-4.3c0,0-0.4-0.9-0.5-1.1
			c-0.4,0-0.7,0-1.1,0c-0.1,0.2-0.5,1.1-0.5,1.1h-2.9l-0.1,0c-0.3,0-0.7-0.2-1.1-0.4v0.5h-2.4c0,0,0,0,0,0h-3v-1c0,0,0-0.7,0-0.8
			c0,0-0.1,0-0.2,0c0,0.4,0,1.8,0,1.8h-2.1h-1.3h-3.7h-0.3H11c0,0,0-0.1,0-0.1c0,0-0.1,0.1-0.1,0.1H8.6c0,0,0-0.1-0.1-0.1
			c0,0,0,0.1,0,0.1H4.2c0,0-0.4-0.9-0.5-1.1c-0.4,0-0.7,0-1.1,0c-0.1,0.3-0.5,1.1-0.5,1.1h-2v20.1h43.5V31c-0.5,0.3-1,0.4-1.6,0.4
			C42,31.5,41.9,31.4,41.8,31.4z"/>
		<path fill="#2E71B2" d="M24.1,17.7c0-1.8-1.7-1.6-1.7-1.6h-3.3v5.3h1.3v-1.8h1.3c0.8,0,0.9,0.8,0.9,0.8v1H24v-1.3
			c0-0.9-0.7-1.2-0.7-1.2S24.1,18.6,24.1,17.7z M21.8,18.4h-1.4v-1h1.4c0.4,0,0.7,0.2,0.7,0.5C22.6,18.1,22.2,18.4,21.8,18.4z"/>
		<path fill="#2E71B2" d="M28.9,17.3l1.4,0v-1.2l-1.7,0c-0.1,0-2.1-0.1-2.1,2.9c0,2.2,1.8,2.5,1.8,2.5h0.6h0.2h1.2l0.5-1.1h2.5
			l0.5,1.1h1.3h0.2h1.2v-3.6l2.1,3.6h1.9v-5.3h-1.4v3.5L37,16.1h-1.9V21l-2-4.8h-1.9l-1.7,4c-0.1,0-1.6,0.6-1.6-1.2
			c0-0.1,0-0.2,0-0.4C28,17.3,28.9,17.3,28.9,17.3z M32.1,17.4l0.6,1.6h-1.3L32.1,17.4z"/>
		<path fill="#2E71B2" d="M13.4,21.4v-5.3h-2.1l-1.5,3.3l-1.5-3.3H6.2V21l-2.1-4.9H2.2L0,21.4h1.5L2,20.3h2.5l0.5,1.1h1.3h0.2h1.2
			v-3.7l1.7,3.7h1.1l1.7-3.7v3.7H13.4z M2.5,19l0.7-1.6L3.8,19H2.5z"/>
		<polygon fill="#2E71B2" points="18.4,17.4 18.4,16.1 14.2,16.1 14.2,21.4 18.4,21.4 18.4,20.3 15.5,20.3 15.5,19.4 18.3,19.4 
			18.3,18.2 15.5,18.2 15.5,17.4 		"/>
		<rect x="24.6" y="16.1" fill="#2E71B2" width="1.4" height="5.3"/>
		<path fill="#2E71B2" d="M29.3,26.7c0-1.8-1.7-1.6-1.7-1.6h-3.3v5.3h1.4v-1.8H27c0.8,0,0.9,0.8,0.9,0.8v1h1.3v-1.3
			c0-0.9-0.6-1.2-0.6-1.2S29.3,27.6,29.3,26.7z M27,27.4h-1.4v-1H27c0.4,0,0.7,0.2,0.7,0.5S27.4,27.4,27,27.4z"/>
		<path fill="#2E71B2" d="M22.1,25.1h-3.3v0h-1l-1.6,1.7l-1.5-1.7H14H9.8v5.3H14h0.8l1.4-1.6l1.4,1.6h1.2h1.3v-1.7h1.3
			c1.7,0,2.3-0.5,2.3-2.1C23.8,24.9,22.1,25.1,22.1,25.1z M14,29.3h-2.8v-0.9h2.8v-1.2h-2.8v-0.8H14l1.3,1.5L14,29.3z M18.8,29.7
			l-1.7-1.9l1.7-1.8V29.7z M21.6,27.4h-1.4v-1h1.4c0.4,0,0.7,0.2,0.7,0.5C22.3,27.1,22,27.4,21.6,27.4z"/>
		<path fill="#2E71B2" d="M36.8,29.2h-2.1v1.2h2.4c0,0,0.1,0,0.2,0c0.5,0,1.8-0.2,1.8-1.9c0-1.6-2.1-1.4-2.1-1.4s-1,0.1-1-0.4
			c0-0.5,0.7-0.4,0.7-0.4h2.1v-1.2h-2.6c0,0-1.7-0.1-1.7,1.6c0,1.7,1.9,1.6,1.9,1.6s1.1,0,1.1,0.4C37.5,29.3,36.8,29.2,36.8,29.2z"
			/>
		<polygon fill="#2E71B2" points="34,26.4 34,25.1 29.8,25.1 29.8,30.5 34,30.5 34,29.3 31.2,29.3 31.2,28.4 34,28.4 34,27.2 
			31.2,27.2 31.2,26.4 		"/>
		<path fill="#2E71B2" d="M41.5,26.4h2.1v-1.2H41c0,0-1.7-0.1-1.7,1.6c0,1.7,1.9,1.6,1.9,1.6s1.1,0,1.1,0.4c0,0.5-0.8,0.4-0.8,0.4
			h-2.1v1.2h2.4c0,0,0.1,0,0.2,0c0.5,0,1.8-0.2,1.8-1.9c0-1.6-2.1-1.4-2.1-1.4s-1,0.1-1-0.4C40.7,26.2,41.5,26.4,41.5,26.4z"/>
	</g>
</g>
<g id="bounding_box">
</g>
</svg>
