<?xml version="1.0" encoding="utf-8"?>
<!-- Generator: Adobe Illustrator 23.1.1, SVG Export Plug-In . SVG Version: 6.00 Build 0)  -->
<svg version="1.1" id="Layer_1" xmlns="http://www.w3.org/2000/svg" xmlns:xlink="http://www.w3.org/1999/xlink" x="0px" y="0px"
	 viewBox="0 0 254.4 129" enable-background="new 0 0 254.4 129" xml:space="preserve">
<path fill="#009ADA" d="M61.9,36.1l5.2-5.2H36.1V0L0,36.1h30.9v5.2H15.2L10,46.4h20.9v5.2h-5.5l-5.2,5.2h10.6V67l5.2-5.2v-5.2h5.2
	l5.2-5.2H36.1v-5.2h15.5l5.2-5.2H36.1v-5.2H61.9z M12.4,30.9l18.5-18.5v18.5H12.4z"/>
<g>
	<path d="M89.2,22.7c4.1,0,5.9,1.5,6.5,5.2l5.5-0.6c-0.6-5.9-4.2-9.7-12-9.7c-9.4,0-13.1,6.3-13.1,15.8c0,9.5,3.7,15.8,13.1,15.8
		c7.8,0,11.4-3.8,12-9.7L95.7,39c-0.5,3.6-2.4,5.2-6.5,5.2c-6.3,0-7.5-5.1-7.5-10.7C81.7,27.8,82.9,22.7,89.2,22.7z"/>
	<path d="M115.1,27.4c-6.3,0-10.2,3.7-10.2,10.9c0,7.2,3.9,10.9,10.2,10.9c6.3,0,10.2-3.7,10.2-10.9
		C125.3,31.1,121.4,27.4,115.1,27.4z M115.1,44.3c-2.9,0-4.7-1.6-4.7-6c0-4.3,1.8-6,4.7-6c2.9,0,4.7,1.6,4.7,6
		C119.8,42.7,118,44.3,115.1,44.3z"/>
	<rect x="129.3" y="17.4" width="5.3" height="31.4"/>
	<path d="M154,46.6l0.4,2.2h4.9l-0.4-5.6V28h-5.3v12.7c-0.3,1.6-2.5,3.6-5.2,3.6c-2.2,0-3.6-1.1-3.6-3.2V28h-5.3v13.9
		c0,5,3.4,7.5,8.2,7.5C150.2,49.3,152.7,48.3,154,46.6z"/>
	<path d="M165,48.8h5.3V36.1c0.4-1.7,1.8-3.6,4.1-3.6c2,0,3.2,0.9,3.2,3v13.3h5.3V36.1c0.4-1.7,1.8-3.6,4-3.6c2,0,3.2,0.9,3.2,3
		v13.3h5.3V35.1c0-4.9-2.8-7.7-7.6-7.7c-2.4,0-5,1-6.5,3c-1.1-1.8-3.1-3-6-3c-2.1,0-4.1,1-5.5,2.7l-0.4-2.2h-4.9l0.4,5.6V48.8z"/>
	<path d="M221.2,38.4c0-7.1-3.4-10.9-9.5-10.9c-2.4,0-4.7,1.1-5.8,2.4V17.4h-5.3v25.8l-0.4,5.6h4.9l0.4-2.3c1.1,1.6,3.8,2.8,6.2,2.8
		C217.8,49.3,221.2,45.4,221.2,38.4z M205.8,40.8v-4.9c0.4-1.7,2.2-3.5,5-3.5c2.7,0,4.8,1.9,4.8,5.9c0,4-2.1,5.9-4.8,5.9
		C208,44.3,206.2,42.5,205.8,40.8z"/>
	<rect x="224.9" y="18.7" width="5.9" height="5.9"/>
	<rect x="225.2" y="28" width="5.3" height="20.8"/>
	<path d="M254,43.2v-7.8c0-5.4-3.6-7.9-9.5-7.9c-6.7,0-8.6,2.9-9.2,6.6l5.5,0.7c0.3-1.7,1.1-2.7,3.9-2.7c2.7,0,4,0.9,4,2.8v0.4
		l-6.4,0.9c-4.7,0.7-7.7,2-7.7,6.6c0,3.8,2.1,6.5,7.7,6.5c2.7,0,5.1-0.9,6.7-2.7l0.4,2.2h4.9L254,43.2z M248.7,41
		c-0.5,1.8-2.7,3.9-5.7,3.8c-1.7,0-2.7-0.8-2.7-2.2c0-1.4,0.7-2,2.9-2.4l5.5-0.9V41z"/>
	<path d="M88.6,110.2c-4.7-0.5-5.9-1.4-5.9-3.5c0-3.5,3.5-4.2,5.5-4.2c4.2,0,6.2,1.2,6.6,4.8l5.6-0.6c-0.6-5.8-4.2-9.3-12.2-9.3
		c-5.9,0-11.1,2.9-11,9.3c0,6.6,5.5,8,11.1,8.5c5.1,0.5,6.7,1.6,6.7,4.3c0,3.4-3.5,4.5-6.5,4.6c-4.2,0-6.4-1.3-6.8-4.9l-5.6,0.6
		c0.6,6.1,4.1,9.4,12.4,9.4c6.1,0,12-2.8,12-9.6C100.4,112.2,96.1,110.8,88.6,110.2z"/>
	<path d="M113.8,112.1c2.9,0,3.8,1.1,4.2,2.9l5.5-0.7c-0.5-4-2.6-7.2-9.6-7.2c-6.4,0-10.1,3.9-10.1,10.9c0,7.1,3.8,10.9,10.1,10.9
		c6.9,0,9.1-3.2,9.6-7.2l-5.5-0.7c-0.4,1.8-1.3,2.9-4.2,2.9c-2.9-0.1-4.7-1.9-4.7-6C109.1,114.1,110.9,112.2,113.8,112.1z"/>
	<path d="M137.9,107.2c-2.2,0-4.7,0.9-6,2.5V97.1h-5.3v31.4h5.3v-12.7c0.3-1.6,2.5-3.6,5.2-3.6c2.2,0,3.6,1.1,3.6,3.2v13.1h5.3
		v-13.9C146.2,109.6,142.8,107.2,137.9,107.2z"/>
	<path d="M158.9,107.2c-6.3,0-10.2,3.7-10.2,10.9c0,7.2,3.9,10.9,10.2,10.9c6.3,0,10.2-3.7,10.2-10.9
		C169.1,110.9,165.2,107.2,158.9,107.2z M158.9,124.1c-2.9,0-4.7-1.6-4.7-6c0-4.3,1.8-6,4.7-6c2.9,0,4.7,1.6,4.7,6
		C163.6,122.4,161.8,124.1,158.9,124.1z"/>
	<path d="M182.2,107.2c-6.3,0-10.2,3.7-10.2,10.9c0,7.2,3.9,10.9,10.2,10.9c6.3,0,10.2-3.7,10.2-10.9
		C192.4,110.9,188.4,107.2,182.2,107.2z M182.2,124.1c-2.9,0-4.7-1.6-4.7-6c0-4.3,1.8-6,4.7-6c2.9,0,4.7,1.6,4.7,6
		C186.9,122.4,185.1,124.1,182.2,124.1z"/>
	<rect x="195.6" y="97.1" width="5.3" height="31.4"/>
	<path d="M97,72.5c1.4-0.9,2.8-2.9,2.8-6.1c0-7.1-5.2-8.5-9.1-8.5H77.6v30.6h13.3c5.2,0,9.9-1.5,9.9-8.9
		C100.7,75.9,99.1,73.4,97,72.5z M83,63h7.2c2.4,0,3.8,0.6,3.8,3.6c0,3-1.5,3.7-3.8,3.7H83V63z M90.6,83.4H83v-8h7.7
		c2,0,4.4,0.4,4.4,4.1C95.1,83.2,92.4,83.4,90.6,83.4z"/>
	<path d="M123.8,67.7h-5.3v12.7c-0.3,1.6-2.5,3.6-5.2,3.6c-2.2,0-3.7-1.1-3.7-3.2V67.7h-5.3v13.9c0,5,3.4,7.5,8.2,7.5
		c2.4,0,4.9-1.1,6.3-2.7l0.4,2.2h4.9l-0.4-5.6V67.7z"/>
	<path d="M137.8,75.7c-2.5-0.3-4.2-0.3-4.2-1.7c0-1.7,1.6-2.1,3.3-2.2c2.6,0,3.6,1,3.8,2.7l5.4-0.7c-0.5-4.4-3.3-6.6-9.3-6.6
		c-4,0-9,1.6-9,6.9c0,5.4,4.5,5.8,8.5,6.1c2.9,0.3,4.5,0.2,4.6,1.9c0,1.8-1.9,2.4-4.2,2.4c-2.6,0-3.7-1-4-2.9l-5.5,0.7
		c0.5,4.2,3.2,6.8,9.5,6.8c4.7,0,9.8-1.7,9.8-7C146.5,76.2,141.9,76.1,137.8,75.7z"/>
	<rect x="150.6" y="58.4" width="5.9" height="5.9"/>
	<rect x="150.9" y="67.7" width="5.3" height="20.8"/>
	<path d="M161.9,88.5h5.3V75.9c0.3-1.6,2.5-3.6,5.2-3.6c2.2,0,3.7,1.1,3.7,3.2v13.1h5.3V74.7c0-5-3.4-7.5-8.2-7.5
		c-2.4,0-4.9,1.1-6.3,2.7l-0.4-2.2h-4.9l0.4,5.6V88.5z"/>
	<path d="M195,67.2c-6.4,0-10.2,3.8-10.2,10.9c0,7.1,3.9,10.9,10.5,10.9c6.6,0,8.9-3,9.5-6.5l-5.5-0.7c-0.3,1.4-1.4,2.5-4.2,2.5
		c-2.7,0-4.6-1.3-4.8-4.2h14.5v-2C204.9,71.1,201.4,67.2,195,67.2z M190.4,76c0.3-2.9,2-4.1,4.6-4.1c2.6,0,4,1.3,4.1,4.1H190.4z"/>
	<path d="M218,75.7c-2.5-0.3-4.2-0.3-4.2-1.7c0-1.7,1.6-2.1,3.3-2.2c2.6,0,3.6,1,3.8,2.7l5.4-0.7c-0.5-4.4-3.3-6.6-9.3-6.6
		c-4,0-9,1.6-9,6.9c0,5.4,4.5,5.8,8.5,6.1c2.9,0.3,4.5,0.2,4.5,1.9c0,1.8-1.9,2.4-4.2,2.4c-2.6,0-3.7-1-4-2.9l-5.5,0.7
		c0.5,4.2,3.2,6.8,9.5,6.8c4.7,0,9.8-1.7,9.8-7C226.7,76.2,222.1,76.1,218,75.7z"/>
	<path d="M239.3,75.7c-2.6-0.3-4.2-0.3-4.2-1.7c0-1.7,1.6-2.1,3.3-2.2c2.6,0,3.6,1,3.8,2.7l5.4-0.7c-0.5-4.4-3.3-6.6-9.3-6.6
		c-4,0-9,1.6-9,6.9c0,5.4,4.5,5.8,8.5,6.1c2.9,0.3,4.5,0.2,4.6,1.9c0,1.8-1.9,2.4-4.2,2.4c-2.6,0-3.7-1-4-2.9l-5.5,0.7
		c0.5,4.2,3.2,6.8,9.5,6.8c4.7,0,9.8-1.7,9.8-7C248.1,76.2,243.5,76.1,239.3,75.7z"/>
</g>
</svg>
