<?xml version="1.0" encoding="utf-8"?>
<!-- Generator: Adobe Illustrator 23.1.1, SVG Export Plug-In . SVG Version: 6.00 Build 0)  -->
<svg version="1.1" id="Layer_1" xmlns="http://www.w3.org/2000/svg" xmlns:xlink="http://www.w3.org/1999/xlink" x="0px" y="0px"
	 viewBox="0 0 286.8 43.7" enable-background="new 0 0 286.8 43.7" xml:space="preserve">
<g>
	<polygon points="13.1,25.1 33.4,25.1 33.4,16.4 13.1,16.4 13.1,9.7 35,9.7 35,0.7 0,0.7 0,43 35.6,43 35.6,33.4 13.1,33.4 	"/>
	<path d="M165.7,25.1H186v-8.6h-20.3V9.7h21.9v-9h-34.8h-0.1h-39.5V9c-0.7-1.2-1.6-2.4-2.6-3.4C106.6,1.9,101.2,0,94.2,0
		c-6.9,0-12.2,1.9-16,5.8c-3.8,3.8-5.8,9.2-5.8,16.1c0,1.4,0.1,2.7,0.2,4c-0.3-1-0.7-2-1.3-2.9c-1.1-1.9-2.9-3.4-5.4-4.7
		c-2.5-1.3-6.6-2.5-12.3-3.7c-2.3-0.5-3.8-1-4.4-1.6c-0.6-0.5-1-1.1-1-1.8c0-0.9,0.4-1.7,1.2-2.3c0.8-0.6,1.9-1,3.4-1
		c1.8,0,3.3,0.4,4.3,1.3c1,0.9,1.7,2.2,2.1,4.1l12.3-0.7C71.1,8.2,69.5,5,66.6,3c-2.8-2-6.9-3-12.3-3c-4.4,0-7.9,0.6-10.4,1.7
		c-2.5,1.1-4.4,2.6-5.7,4.6c-1.3,1.9-1.9,4-1.9,6.2c0,3.3,1.2,6,3.7,8.2c2.4,2.1,6.5,3.8,12.2,5.1c3.5,0.8,5.7,1.6,6.7,2.4
		c1,0.9,1.4,1.8,1.4,2.9c0,1.2-0.5,2.2-1.5,3c-1,0.9-2.4,1.3-4.3,1.3c-2.5,0-4.4-0.9-5.8-2.6c-0.8-1.1-1.4-2.6-1.6-4.6L34.8,29
		c0.4,4.3,1.9,7.8,4.7,10.5s7.7,4.1,14.9,4.1c4.1,0,7.5-0.6,10.2-1.8c2.7-1.2,4.8-2.9,6.3-5.2c1.5-2.3,2.2-4.8,2.2-7.5
		c0-0.4,0-0.8-0.1-1.2c0.5,2.3,1.2,4.3,2.3,6.1c1.9,3.3,4.5,5.7,7.6,7.2c3.1,1.5,7.1,2.3,11.8,2.3c4.7,0,8.6-0.9,11.7-2.6
		c3.1-1.8,5.5-4.2,7.2-7.4c1.7-3.2,2.5-7.2,2.5-12.1c0-4-0.7-7.4-2-10.4h12.2V43h13V11.1h13.2V43h35.6v-9.6h-22.5V25.1z M100.8,31.2
		c-1.5,1.8-3.7,2.7-6.5,2.7c-2.7,0-4.9-0.9-6.5-2.8c-1.6-1.9-2.4-4.9-2.4-9.2c0-4.3,0.8-7.4,2.4-9.2c1.6-1.9,3.7-2.8,6.3-2.8
		c2.7,0,4.9,0.9,6.5,2.8c1.6,1.8,2.4,4.7,2.4,8.7C103.1,26.1,102.3,29.3,100.8,31.2z"/>
	<path d="M230.4,41.2L225,30.7c-0.3-0.6-0.9-1.5-1.8-2.6c-0.9-1.1-1.6-1.9-2.1-2.2c-0.7-0.5-1.8-1-3.4-1.6c1.9-0.4,3.5-1,4.6-1.7
		c1.7-1.1,3.1-2.4,4.1-4.1c1-1.7,1.5-3.7,1.5-6.1c0-2.7-0.7-5-2-6.8c-1.3-1.9-3-3.2-5.2-3.8s-5.2-1-9.2-1h-21.8V43h13.1V25.8h1.2
		c1.2,0,2.3,0.3,3.2,1c0.7,0.5,1.5,1.6,2.4,3.3l7,12.9h13.8h0.9h12.2V0.7h-13.1V41.2z M214,15.9c-0.5,0.7-1.3,1.2-2.1,1.3
		c-1.7,0.4-2.9,0.6-3.5,0.6h-5.5V9.2h5.7c2.4,0,4,0.4,4.9,1.1c0.9,0.7,1.3,1.8,1.3,3.1C214.8,14.4,214.5,15.2,214,15.9z"/>
	<path d="M275.4,25.7c-0.6,2.7-1.5,4.7-2.8,6.1c-1.3,1.4-3.2,2.1-5.7,2.1c-2.6,0-4.6-0.9-6-2.6c-1.4-1.7-2.1-4.9-2.1-9.6
		c0-3.8,0.6-6.6,1.8-8.3c1.6-2.4,3.8-3.6,6.8-3.6c1.3,0,2.5,0.3,3.5,0.8c1.1,0.5,1.9,1.3,2.7,2.3c0.4,0.6,0.9,1.5,1.3,2.8l11.5-2.6
		c-1.5-4.5-3.7-7.8-6.8-9.9c-3-2.2-7.2-3.2-12.5-3.2c-6.8,0-12.1,1.9-15.8,5.6c-3.7,3.8-5.6,9.1-5.6,16.1c0,5.2,1.1,9.5,3.2,12.9
		c2.1,3.4,4.6,5.7,7.5,7c2.9,1.3,6.7,2,11.2,2c3.8,0,6.9-0.5,9.3-1.6c2.4-1.1,4.5-2.7,6.2-4.9c1.7-2.2,2.9-4.8,3.6-8L275.4,25.7z"/>
</g>
</svg>
