<?xml version="1.0" encoding="utf-8"?>
<!-- Generator: Adobe Illustrator 23.1.1, SVG Export Plug-In . SVG Version: 6.00 Build 0)  -->
<svg version="1.1" id="Layer_1" xmlns="http://www.w3.org/2000/svg" xmlns:xlink="http://www.w3.org/1999/xlink" x="0px" y="0px"
	 viewBox="0 0 367.8 209.9" enable-background="new 0 0 367.8 209.9" xml:space="preserve">
<g>
	<path fill="none" d="M157,157L157,157L157,157c-28.7,28.7-75.3,28.7-104,0c-28.7-28.7-28.7-75.3,0-104c28.7-28.7,75.3-28.7,104,0
		c3.5,3.5,6.6,7.3,9.2,11.2c1.6-3.8,3.5-7.6,5.6-11.3c-2.1-2.7-4.4-5.3-6.9-7.8c-33-33-86.7-33-119.7,0l0,0l0,0
		c-33,33-33,86.7,0,119.7c33,33,86.7,33,119.7,0c2.5-2.5,4.8-5.1,6.9-7.8c-2.1-3.7-3.9-7.4-5.6-11.3
		C163.5,149.7,160.4,153.5,157,157z"/>
	<path fill="none" d="M105,83.3c-8.5,0-15.9,5-19.3,12.2l38.6,0C120.8,88.3,113.5,83.3,105,83.3z"/>
	<path fill="none" d="M189.5,101.1c-0.4-9.1-2.3-18.1-5.6-26.6c-3.3,8.6-5.2,17.6-5.6,26.6c0.1,2.5,0.1,5.1,0,7.6
		c0.4,9.1,2.3,18.1,5.6,26.6c3.3-8.6,5.2-17.6,5.6-26.6C189.4,106.2,189.4,103.7,189.5,101.1z"/>
	<path fill="none" d="M210.9,52.9c28.7-28.7,75.3-28.7,104,0c28.7,28.7,28.7,75.3,0,104c-28.7,28.7-75.3,28.7-104,0
		c-3.5-3.5-6.6-7.3-9.2-11.2c-1.6,3.8-3.5,7.6-5.6,11.3c2.1,2.7,4.4,5.3,6.9,7.8c33,33,86.7,33,119.7,0c33-33,33-86.7,0-119.7
		c-33-33-86.7-33-119.7,0h0l0,0c-2.5,2.5-4.8,5.1-6.9,7.8c2.1,3.7,3.9,7.4,5.6,11.3C204.3,60.2,207.4,56.4,210.9,52.9z"/>
	<path fill="none" d="M67.5,67.5c-20.7,20.7-20.7,54.3,0,74.9c20.7,20.7,54.3,20.7,74.9,0l0,0l0,0c20.7-20.7,20.7-54.3,0-74.9
		C121.8,46.8,88.1,46.8,67.5,67.5z M146,113h-21.4h-5.1H85.3c3.3,7.6,10.8,13,19.7,13c6.2,0,11.8-2.7,15.7-6.9h23.6
		c-5.9,16-21.3,27.5-39.4,27.5c-23.1,0-41.9-18.8-41.9-41.9c0-23.1,18.8-41.9,41.9-41.9c23.1,0,41.9,18.8,41.9,41.9
		C146.9,107.5,146.6,110.3,146,113z"/>
	<path fill="none" d="M284.5,104.7L284.5,104.7c0-11.8-9.6-21.4-21.4-21.4c-11.8,0-21.3,9.6-21.4,21.3v0.1
		c0,11.7,9.6,21.3,21.4,21.3C275,126,284.5,116.4,284.5,104.7z"/>
	<path fill="none" d="M221.3,104.3L221.3,104.3c0.2-22.9,18.9-41.5,41.9-41.5c23.1,0,41.9,18.8,41.9,41.9
		c0,23.1-18.8,41.9-41.9,41.9c-7.8,0-15.1-2.1-21.4-5.9v12.9c19.4,8.4,42.7,4.7,58.5-11.1h0l0,0c20.7-20.7,20.7-54.3,0-74.9
		c-20.7-20.7-54.3-20.7-74.9,0c-19.2,19.2-20.5,49.5-4.2,70.2V104.3z"/>
	<path fill="#00B0DB" d="M201.7,145.7c2.6,4,5.7,7.7,9.2,11.2c28.7,28.7,75.3,28.7,104,0c28.7-28.7,28.7-75.3,0-104
		c-28.7-28.7-75.3-28.7-104,0c-3.5,3.5-6.6,7.3-9.2,11.2C212.6,90.2,212.6,119.7,201.7,145.7z M225.4,67.5
		c20.7-20.7,54.3-20.7,74.9,0c20.7,20.7,20.7,54.3,0,74.9l0,0h0c-15.8,15.8-39.2,19.5-58.5,11.1v-12.9c6.3,3.7,13.6,5.9,21.4,5.9
		c23.1,0,41.9-18.8,41.9-41.9c0-23.1-18.8-41.9-41.9-41.9c-23,0-41.7,18.6-41.9,41.5h0v33.4C204.9,116.9,206.3,86.6,225.4,67.5z
		 M241.8,104.8v-0.1c0-11.8,9.6-21.3,21.4-21.3c11.8,0,21.4,9.6,21.4,21.4h0c0,11.8-9.6,21.4-21.4,21.4
		C251.4,126,241.9,116.5,241.8,104.8z"/>
	<path fill="#00B0DB" d="M178.4,101.1c0.4-9.1,2.3-18.1,5.6-26.6c-2.9-7.6-7-14.9-12.2-21.6c-2.1,3.7-3.9,7.4-5.6,11.3
		C173.6,75.4,177.7,88.2,178.4,101.1z"/>
	<path fill="#00B0DB" d="M337.1,30.7c-40.9-40.9-107.6-40.9-148.5,0c-1.6,1.6-3.2,3.3-4.7,5.1c4.7,5.4,8.8,11.1,12.2,17.1
		c2.1-2.7,4.4-5.3,6.9-7.8l0,0h0c33-33,86.7-33,119.7,0c33,33,33,86.7,0,119.7c-33,33-86.7,33-119.7,0c-2.5-2.5-4.8-5.1-6.9-7.8
		c-3.4,6-7.5,11.8-12.2,17.1c1.5,1.7,3.1,3.4,4.7,5.1c40.9,40.9,107.6,40.9,148.5,0v0C378.1,138.3,378.1,71.6,337.1,30.7z"/>
	<path fill="#00B0DB" d="M166.1,145.7c1.6,3.8,3.5,7.6,5.6,11.3c5.2-6.7,9.3-14,12.2-21.6c-3.3-8.6-5.2-17.6-5.6-26.6
		C177.7,121.7,173.6,134.5,166.1,145.7z"/>
	<path fill="#C3D941" d="M189.5,101.1c0.7-13,4.7-25.8,12.2-37c-1.6-3.8-3.5-7.6-5.6-11.3c-5.2,6.7-9.3,14-12.2,21.6
		C187.2,83.1,189.1,92.1,189.5,101.1z"/>
	<path fill="#C3D941" d="M189.5,108.8c-0.4,9.1-2.3,18.1-5.6,26.6c2.9,7.6,7,14.9,12.2,21.6c2.1-3.7,3.9-7.4,5.6-11.3
		C194.2,134.5,190.2,121.7,189.5,108.8z"/>
	<path fill="#C3D941" d="M164.8,164.8c-33,33-86.7,33-119.7,0c-33-33-33-86.7,0-119.7l0,0l0,0c33-33,86.7-33,119.7,0
		c2.5,2.5,4.8,5.1,6.9,7.8c3.4-6,7.5-11.8,12.2-17.1c-1.5-1.7-3.1-3.4-4.7-5.1c-40.9-40.9-107.6-40.9-148.5,0
		c-40.9,40.9-40.9,107.6,0,148.5c40.9,40.9,107.6,40.9,148.5,0v0c1.6-1.6,3.2-3.3,4.7-5.1c-4.7-5.4-8.8-11.1-12.2-17.1
		C169.6,159.7,167.3,162.3,164.8,164.8z"/>
	<path fill="#C3D941" d="M166.1,64.2c-2.6-4-5.7-7.7-9.2-11.2c-28.7-28.7-75.3-28.7-104,0c-28.7,28.7-28.7,75.3,0,104
		c28.7,28.7,75.3,28.7,104,0l0,0l0,0c3.5-3.5,6.6-7.3,9.2-11.2C155.2,119.7,155.2,90.2,166.1,64.2z M142.4,142.4L142.4,142.4
		L142.4,142.4c-20.7,20.7-54.3,20.7-74.9,0c-20.7-20.7-20.7-54.3,0-74.9c20.7-20.7,54.3-20.7,74.9,0
		C163.1,88.1,163.1,121.8,142.4,142.4z"/>
	<path fill="#C3D941" d="M105,62.8C81.8,62.8,63,81.6,63,104.7c0,23.1,18.8,41.9,41.9,41.9c18,0,33.5-11.5,39.4-27.5h-23.6
		c-3.9,4.3-9.5,6.9-15.7,6.9c-8.8,0-16.4-5.4-19.7-13h34.2h5.1H146c0.5-2.7,0.8-5.5,0.8-8.4C146.9,81.6,128.1,62.8,105,62.8z
		 M85.7,95.6c3.4-7.2,10.8-12.2,19.3-12.2c8.5,0,15.9,5,19.3,12.2L85.7,95.6z"/>
</g>
<path fill="#39B54A" d="M183.9,135.4c-2.9,7.6-7,14.9-12.2,21.6c3.4,6,7.5,11.8,12.2,17.1c4.7-5.4,8.8-11.1,12.2-17.1
	C190.9,150.3,186.9,143.1,183.9,135.4z"/>
<path fill="#39B54A" d="M166.1,145.7c7.5-11.2,11.5-24,12.2-37c-0.1-2.5-0.1-5.1,0-7.6c-0.7-13-4.7-25.8-12.2-37
	C155.2,90.2,155.2,119.7,166.1,145.7z"/>
<path fill="#39B54A" d="M189.5,108.5c0.7,13,4.7,25.8,12.2,37c10.9-26,10.9-55.6,0-81.6c-7.5,11.2-11.5,24-12.2,37
	C189.6,103.4,189.6,105.9,189.5,108.5z"/>
<path fill="#39B54A" d="M183.9,74.5c2.9-7.6,7-14.9,12.2-21.6c-3.4-6-7.5-11.8-12.2-17.1c-4.7,5.4-8.8,11.1-12.2,17.1
	C176.9,59.6,181,66.9,183.9,74.5z"/>
</svg>
