<?xml version="1.0" encoding="utf-8"?>
<!-- Generator: Adobe Illustrator 23.1.1, SVG Export Plug-In . SVG Version: 6.00 Build 0)  -->
<svg version="1.1" id="Layer_1" xmlns="http://www.w3.org/2000/svg" xmlns:xlink="http://www.w3.org/1999/xlink" x="0px" y="0px"
	 viewBox="0 0 571.1 121.2" enable-background="new 0 0 571.1 121.2" xml:space="preserve">
<g>
	<polygon fill="#0F6DB6" points="114,0 43.4,121.2 30.4,98 87.6,0 	"/>
	<polygon fill="#D92027" points="75.3,14.7 28.1,95 15.3,71.7 48.9,14.7 	"/>
	<polygon fill="#663091" points="36.1,28.4 13,68.2 0,45.1 9.7,28.4 	"/>
</g>
<g>
	<path fill="#7A808C" d="M138.6,59.8c-1.5,0-3,0-4.5,0c0-7.5,0-14.9,0-22.3c0.1,0,0.1,0,0.2,0c4.8,9.3,9.6,18.6,14.3,27.9
		c3.5,0,7,0,10.6,0c0-10.6,0-21.1,0-31.7c1.6,0,3,0,4.4,0c0-1.9,0-3.6,0-5.5c-5.5,0-10.9,0-16.2,0c0,1.9,0,3.7,0,5.5
		c1.6,0,3.1,0,4.6,0c0,7.2,0,14.3,0,21.5c-0.1,0-0.1,0-0.2,0.1c-4.6-9-9.3-18.1-13.8-27c-5.3,0-10.4,0-15.5,0c0,1.9,0,3.7,0,5.5
		c1.5,0,2.9,0,4.3,0c0,8.7,0,17.4,0,26.2c-1.5,0-2.9,0-4.4,0c0,1.9,0,3.7,0,5.5c5.5,0,10.8,0,16.2,0
		C138.6,63.4,138.6,61.6,138.6,59.8z"/>
	<path fill="#7A808C" d="M227.2,44c1.2,0,2.3,0,3.5,0c-1.4,5.3-2.7,10.4-4.1,15.5c-0.1,0-0.2,0-0.3,0c-1.8-6.9-3.5-13.8-5.3-20.7
		c-3.4,0-6.8,0-10.2,0c-1.7,6.9-3.4,13.8-5.2,20.7c-0.1,0-0.2,0-0.3,0c-1.4-5.1-2.7-10.2-4.1-15.5c1.3,0,2.4,0,3.4,0
		c0-1.8,0-3.4,0-5.1c-4.5,0-8.8,0-13.2,0c0,1.8,0,3.4,0,5.2c0.7,0,1.3,0,2,0c2.3,7.1,4.6,14.2,6.9,21.3c3.2,0,6.4,0,9.6,0
		c1.8-7.1,3.6-14.2,5.3-21.3c0.1,0,0.1,0,0.2,0c1.8,7.1,3.6,14.1,5.4,21.2c3.2,0,6.4,0,9.6,0c2.2-7.1,4.4-14.2,6.7-21.3
		c0.8,0,1.5,0,2.2,0c0-1.8,0-3.4,0-5.1c-4.2,0-8.3,0-12.5,0C227.2,40.6,227.2,42.3,227.2,44z"/>
	<path fill="#7A808C" d="M163.6,55.8c0.8,4,2.9,7,6.6,8.8c3.4,1.7,7,1.9,10.7,1.1c2.8-0.6,5.3-1.8,7.1-4.2c1-1.3,1.6-2.7,1.7-4.4
		c-2.3,0-4.6,0-6.8,0c-1.9,3.3-4.1,4.3-7.3,3.5c-2.9-0.8-4.6-3.2-4.6-6.5c6.4,0,12.6,0,19,0c0.2-3.7-0.1-7.1-1.8-10.2
		c-1.3-2.4-3.3-4-5.8-4.9c-2.3-0.8-4.8-1-7.2-0.8c-5.6,0.5-10,4-11.3,9.1C163.1,50.1,163,53,163.6,55.8z M176.9,43.2
		c3.4,0,5.7,2.6,5.6,6.2c-3.8,0-7.7,0-11.5,0C171,46.6,173.1,43.2,176.9,43.2z"/>
	<path fill="#7A808C" d="M266.1,65.2c3.1,0,6.1,0,9.1,0c4.4-10.5,8.9-21.1,13.3-31.6c1,0,2,0,2.9,0c0-1.9,0-3.7,0-5.5
		c-5.5,0-10.8,0-16.2,0c0,1.9,0,3.7,0,5.5c1.6,0,3.1,0,4.8,0c-3,8-5.9,15.9-8.8,23.8c-0.1,0-0.2,0-0.3,0c-3-7.9-6.1-15.8-9.2-23.8
		c1.8,0,3.4,0,4.9,0c0-1.9,0-3.7,0-5.4c-5.7,0-11.3,0-16.9,0c0,1.9,0,3.7,0,5.5c1.1,0,2.1,0,3.2,0C257.4,44.2,261.7,54.7,266.1,65.2
		z"/>
	<path fill="#7A808C" d="M408.1,58.7c0-4,0.1-8-0.1-12.1c-0.1-3.3-1.5-5.9-4.5-7.4c-1.9-0.9-3.9-1-5.9-1c-2.8,0.1-5,1.1-6.9,3.2
		c-0.2,0.3-0.5,0.5-0.9,1c0-1.3,0-2.3,0-3.5c-3.7,0-7.3,0-10.8,0c0,1.7,0,3.2,0,4.9c1.1,0,2.2,0,3.3,0c0,5.5,0,10.9,0,16.3
		c-1.2,0-2.2,0-3.3,0c0,1.7,0,3.3,0,5c4.9,0,9.7,0,14.6,0c0-1.7,0-3.3,0-5c-1.2,0-2.3,0-3.4,0c0-0.3-0.1-0.5-0.1-0.7
		c0-3.1,0-6.2,0-9.3c0-0.9,0.2-1.8,0.4-2.6c0.8-2.7,3.3-4.1,6.5-3.6c2.3,0.3,3.4,1.9,3.5,4.9c0,0,0,0.1,0,0.1c0,3.4,0,6.8,0,10.2
		c0,0.3-0.1,0.6-0.1,1.1c-1.2,0-2.3,0-3.4,0c0,1.7,0,3.3,0,5c4.8,0,9.5,0,14.3,0c0-1.7,0-3.4,0-5.1c-1.1,0-2.1,0-3.2,0
		C408.1,59.6,408.1,59.1,408.1,58.7z"/>
	<path fill="#7A808C" d="M373.2,41c-2.6-2.1-5.7-2.9-9.1-3c-1.6,0.3-3.3,0.4-4.8,0.8c-4,1.1-7,3.6-8.5,7.6c-1,2.5-1.2,5.2-0.8,7.8
		c0.5,4.4,2.5,7.9,6.6,9.9c1.4,0.7,3,1.2,4.5,1.5c4.2,0.8,8.1,0.1,11.7-2.3c3.5-2.4,5.1-6,5.3-10.2C378.4,48.3,377.1,44.1,373.2,41z
		 M369.4,57c-1.1,2.2-2.8,3.5-5.4,3.4c-2.6,0-4.4-1.2-5.4-3.5c-1.4-3.2-1.4-6.6,0-9.9c1-2.5,3.3-3.7,6.2-3.5c2.4,0.2,4.4,2,5.1,4.7
		c0.3,1.2,0.4,2.5,0.6,3.3C370.4,53.8,370.2,55.5,369.4,57z"/>
	<path fill="#7A808C" d="M330.6,61.8c0.9-1.6,1-3.3,0.9-5.1c-0.2-3.1-1.9-5.5-4.9-6.5c-1.3-0.4-2.7-0.7-4-1.1
		c-1.7-0.4-3.4-0.8-5.1-1.3c-0.9-0.3-1.5-0.9-1.5-1.9c-0.1-1.1,0.3-1.9,1.2-2.5c2.7-1.7,6.6-0.2,7.5,2.9c0.1,0.4,0.2,0.9,0.3,1.3
		c1.9,0,3.8,0,5.6,0c0-2.9,0-5.8,0-8.7c-1.8,0-3.6,0-5.4,0c-0.1,0.7-0.1,1.4-0.2,2.2c-0.6-0.5-1-0.9-1.5-1.3
		c-1.3-1.1-2.7-1.7-4.4-1.7c-1.5,0-3,0-4.5,0.2c-2.8,0.5-5,2-5.9,4.8c-0.4,1.4-0.6,2.9-0.5,4.3c0.1,2.8,2,5.2,4.7,6
		c1.6,0.5,3.3,0.8,4.9,1.2c1.4,0.3,2.8,0.6,4.1,1c1.3,0.4,1.9,1.5,1.8,2.7c-0.1,1.2-0.9,2.2-2.2,2.4c-0.9,0.2-1.8,0.2-2.6,0.1
		c-2.1-0.2-3.4-1.3-4.1-3.2c-0.2-0.5-0.3-1.1-0.5-1.8c-1,0-1.9,0-2.9,0c-1,0-2,0-3,0c0,3.2,0,6.2,0,9.3c1,0,2,0,2.9,0
		c0.9,0,1.8,0,2.8,0c0-0.9,0-1.7,0-2.6c0.5,0.4,0.8,0.7,1.1,1c1.4,1.3,3,2.2,4.9,2.2c1.5,0.1,3.1,0,4.6-0.2
		C327.2,65.2,329.3,64.1,330.6,61.8z"/>
	<path fill="#7A808C" d="M418.8,53.4c1.6,0.5,3.3,0.8,5,1.2c1.5,0.4,2.9,0.6,4.4,1.1c1,0.3,1.6,1.2,1.6,2.3c0,1.1-0.5,1.9-1.4,2.4
		c-2.5,1.3-6.1,0.2-7.3-2.3c-0.3-0.7-0.5-1.5-0.8-2.2c-2,0-3.9,0-5.9,0c0,3.1,0,6.1,0,9.1c1.9,0,3.8,0,5.6,0c0-0.8,0-1.5,0-2.5
		c0.5,0.5,0.9,0.8,1.2,1.1c1.4,1.4,3.1,2.1,5.1,2.2c1.4,0.1,2.8,0,4.1-0.2c4.5-0.8,6.8-3.4,7.1-7.8c0.2-3.8-1.7-6.7-5.3-7.9
		c-1.4-0.5-2.9-0.7-4.4-1.1c-1.5-0.4-2.9-0.7-4.4-1.1c-1-0.3-1.5-1-1.6-2.1c0-1,0.4-1.8,1.2-2.3c2-1.2,6.2-1,7.3,2.5
		c0.2,0.5,0.4,1.1,0.5,1.6c1.9,0,3.7,0,5.6,0c0-2.9,0-5.7,0-8.6c-1.9,0-3.6,0-5.5,0c-0.1,0.7-0.1,1.4-0.2,2.1
		c-0.6-0.5-1.1-0.9-1.6-1.3c-1.2-1-2.7-1.6-4.3-1.6c-1.5,0-2.9,0-4.4,0.2c-3.5,0.5-5.9,3-6.4,6.5c-0.1,0.9-0.1,1.8-0.1,2.8
		C414.4,50.2,416.3,52.7,418.8,53.4z"/>
	<path fill="#7A808C" d="M306,60.2c-1.1,0-2.1,0-3.3,0c0-7.2,0-14.2,0-21.2c-3.8,0-7.4,0-11,0c0,1.7,0,3.3,0,5.1c1.2,0,2.2,0,3.3,0
		c0,5.5,0,10.8,0,16.2c-1.2,0-2.2,0-3.4,0c0,1.7,0,3.3,0,5c4.8,0,9.5,0,14.3,0C306,63.5,306,61.9,306,60.2z"/>
	<path fill="#7A808C" d="M337.6,60.2c-1.2,0-2.3,0-3.4,0c0,1.8,0,3.4,0,5c4.8,0,9.6,0,14.3,0c0-1.7,0-3.3,0-5c-1.1,0-2,0-3.2,0
		c0-7.2,0-14.2,0-21.3c-3.8,0-7.4,0-11,0c0,1.7,0,3.3,0,5.1c1.2,0,2.3,0,3.4,0C337.6,49.5,337.6,54.8,337.6,60.2z"/>
	<path fill="#7A808C" d="M302.6,27.5c-2.6,0-5.1,0-7.7,0c0,2.5,0,5,0,7.5c2.6,0,5.1,0,7.7,0C302.6,32.5,302.6,30,302.6,27.5z"/>
	<path fill="#7A808C" d="M345.2,27.5c-2.6,0-5.1,0-7.7,0c0,2.5,0,5,0,7.5c2.7,0,5.2,0,7.7,0C345.2,32.4,345.2,30,345.2,27.5z"/>
	<path fill="#7A808C" d="M171.3,97.3c-0.6-5-3-8.8-7.8-10.8c-3.8-1.6-7.7-1.6-11.6-0.3c-3.9,1.3-6.6,3.8-8,7.7
		c-0.9,2.6-1.1,5.3-0.6,8.1c0.7,4.1,2.7,7.4,6.5,9.3c3.9,1.9,7.9,2.3,12.1,1.1c3.5-1,6.3-3.1,7.9-6.5c1-2.1,1.5-4.3,1.4-6.7
		C171.3,98.5,171.4,97.9,171.3,97.3z M162.3,104.7c-1.2,2.1-3.1,3-5.5,2.9c-2.3-0.1-4-1.3-4.9-3.4c-1.5-3.3-1.5-6.8,0-10.1
		c1.1-2.4,3.1-3.5,5.8-3.4c2.5,0.1,4.1,1.4,5,3.6c0.6,1.5,0.8,3.1,1,3.9C163.6,100.9,163.4,102.9,162.3,104.7z"/>
	<path fill="#7A808C" d="M138,80.2c1.4-0.7,2.9-0.6,4.4-0.5c0.4,0,0.8,0.1,1.3,0.2c0-1.8,0-3.5,0-5.2c-0.2-0.1-0.3-0.2-0.5-0.2
		c-3.3-0.7-6.6-0.8-9.8,0.4c-2,0.7-3.5,2-4.3,4c-0.7,1.8-0.8,3.6-0.9,5.4c0,0.5,0,1.1,0,1.7c-1.7,0-3.2,0-4.7,0c0,1.8,0,3.5,0,5.2
		c1.6,0,3.1,0,4.6,0c0,5.4,0,10.7,0,16.1c-1.6,0-3.1,0-4.6,0c0,1.7,0,3.4,0,5c5.7,0,11.2,0,16.7,0c0-1.7,0-3.3,0-5
		c-1.5,0-2.9,0-4.3,0c0-5.4,0-10.7,0-16.1c1.9,0,3.8,0,5.6,0c0-1.8,0-3.5,0-5.3c-1.9,0-3.8,0-5.8,0c0.1-1.3,0.1-2.4,0.3-3.6
		C136.3,81.3,137,80.6,138,80.2z"/>
	<path fill="#7A808C" d="M188.1,86c-2.2,0.9-3.4,2.7-4.5,4.7c-0.1,0-0.2-0.1-0.2-0.1c0-1.5,0-3,0-4.6c-3.6,0-7,0-10.4,0
		c0,1.7,0,3.3,0,5.1c1.2,0,2.3,0,3.4,0c0,5.5,0,10.8,0,16.2c-1.2,0-2.3,0-3.4,0c0,1.8,0,3.4,0,5c5.2,0,10.3,0,15.4,0
		c0-1.7,0-3.3,0-5c-1.5,0-2.8,0-4.5,0c0.1-3.3,0.2-6.3,0.3-9.4c0-0.7,0.3-1.4,0.6-2c1.3-2.7,3.7-3.7,6.5-3.9c1.1-0.1,2.1,0,3.2,0
		c0-2.1,0-4.2,0-6.3C192.3,85.3,190.2,85.2,188.1,86z"/>
	<path fill="#7A808C" d="M230.9,75.2c-1.3-0.2-2.6-0.3-3.9-0.3c-6.4,0-12.8,0-19.2,0c-0.4,0-0.8,0-1.3,0.1c0,1.9,0,3.7,0,5.6
		c1.5,0,2.9,0,4.3,0c0,8.8,0,17.4,0,26.2c-1.5,0-2.9,0-4.4,0c0,1.9,0,3.7,0,5.5c6.2,0,12.2,0,18.2,0c0-1.9,0-3.7,0-5.5
		c-1.9,0-3.8,0-5.7,0c0-2.9,0-5.7,0-8.7c0.5,0,1,0,1.4,0c2.7,0,5.4,0.1,8.1,0c4.4-0.2,7.8-2,9.6-6.1c1.4-3.2,1.4-6.5,0.3-9.8
		C237.2,78.3,234.8,75.9,230.9,75.2z M230.6,89.3c-0.7,1.8-2,2.9-3.9,3.1c-1.5,0.2-2.9,0.2-4.4,0.3c-1,0-2.1,0-3.2,0
		c0-4.1,0-8.1,0-12.3c2.9,0,5.7-0.2,8.5,0.4c1.6,0.3,2.6,1.4,3.1,2.8C231.3,85.5,231.3,87.4,230.6,89.3z"/>
	<path fill="#7A808C" d="M287,88.5c-0.2,0.2-0.4,0.4-0.8,0.7c0-5.1,0-10,0-14.9c-3.8,0-7.4,0-11,0c0,1.7,0,3.3,0,5.1
		c1.2,0,2.3,0,3.4,0c0,9.3,0,18.4,0,27.7c-1.2,0-2.3,0-3.4,0c0,1.7,0,3.4,0,5.1c3.6,0,7.2,0,10.8,0c0-1.2,0-2.3,0-3.7
		c1.2,1.8,2.6,2.9,4.3,3.6c1.7,0.7,3.5,0.8,5.3,0.7c4.2-0.3,7.5-2.1,9.3-5.9c2.5-5.3,2.4-10.6,0.1-15.9
		C301.9,84.1,291.5,82.6,287,88.5z M298,104c-1.1,2.5-3.1,3.6-5.7,3.5c-2.6-0.1-4.4-1.5-5.2-3.8c-0.5-1.4-0.7-3-1-4.5
		c0.2-1.9,0.4-3.6,1.2-5.3c1.2-2.4,3.3-3.5,5.9-3.4c2.5,0.1,4.2,1.5,5,3.8C299.3,97.5,299.4,100.8,298,104z"/>
	<path fill="#7A808C" d="M270.4,85.8c-3.7,0-7.4,0-11.1,0c0,1.7,0,3.4,0,5.2c1.2,0,2.3,0,3.3,0c0.1,0.1,0.2,0.2,0.2,0.2
		c0,3.7,0.1,7.5-0.2,11.2c-0.2,2.8-2.2,4.6-4.9,4.8c-2.8,0.3-4.7-1.2-4.9-4c0-0.5,0-1.1,0-1.6c0-4.8,0-9.6,0-14.3c0-0.4,0-0.9,0-1.4
		c-3.7,0-7.4,0-11,0c0,1.8,0,3.4,0,5.1c1.1,0,2,0,3.2,0c0,0.6,0,1,0,1.5c0,3.6,0,7.2,0,10.8c0,1.2,0.2,2.5,0.5,3.7
		c0.4,1.8,1.4,3.3,3,4.3c3.4,2.2,10.1,2.7,13.7-1.7c0.2-0.3,0.4-0.6,0.6-0.9c0.1,0.1,0.2,0.1,0.3,0.2c0,1.1,0,2.2,0,3.3
		c3.6,0,7,0,10.4,0c0-1.7,0-3.4,0-5.2c-1.1,0-2.1,0-3.2,0C270.4,99.9,270.4,92.9,270.4,85.8z"/>
	<path fill="#7A808C" d="M359.6,104.6c-0.4,1.2-1.3,2.1-2.5,2.5c-3,1.2-6.2-0.1-7.4-3.1c-1.2-3-1.1-6-0.3-9c0.3-1,0.9-2,1.6-2.8
		c2.7-3,7.5-1.9,8.7,1.9c0.2,0.7,0.4,1.4,0.5,2.2c2,0,4,0,6,0c0-3.5,0-7,0-10.5c-1.9,0-3.7,0-5.5,0c0,0.9-0.1,1.6-0.1,2.7
		c-0.4-0.5-0.6-0.8-0.9-1c-1-0.7-1.9-1.6-3-2c-4.8-1.5-10.4-0.1-13.2,4.5c-3.3,5.2-3.3,10.8-0.8,16.3c1.4,3.1,3.9,5.2,7.3,6.1
		c3.1,0.9,6.3,0.9,9.5,0c2.3-0.6,4.2-1.8,5.5-3.9c1-1.6,1.6-3.4,1.5-5.3c-2.2,0-4.3,0-6.4,0C359.9,103.7,359.8,104.1,359.6,104.6z"
		/>
	<path fill="#7A808C" d="M318.7,74.4c-3.8,0-7.4,0-11.1,0c0,0.9,0,1.7,0,2.5c0,0.8,0,1.6,0,2.6c1.2,0,2.3,0,3.4,0
		c0,9.3,0,18.4,0,27.7c-1.2,0-2.2,0-3.4,0c0,1.8,0,3.4,0,5.1c4.8,0,9.6,0,14.3,0c0-1.8,0-3.4,0-5.2c-1.1,0-2.1,0-3.2,0
		C318.7,96.1,318.7,85.2,318.7,74.4z"/>
	<path fill="#7A808C" d="M336.1,85.8c-3.8,0-7.4,0-11.1,0c0,1.7,0,3.4,0,5.1c1.1,0,2.2,0,3.4,0c0,5.4,0,10.8,0,16.2
		c-1.2,0-2.3,0-3.3,0c0,1.8,0,3.4,0,5.1c4.8,0,9.5,0,14.3,0c0-1.7,0-3.4,0-5.1c-1.1,0-2.1,0-3.2,0C336.1,99.9,336.1,92.9,336.1,85.8
		z"/>
	<path fill="#7A808C" d="M328.2,81.8c2.6,0,5.2,0,7.8,0c0-2.5,0-5,0-7.5c-2.6,0-5.1,0-7.8,0C328.2,76.8,328.2,79.3,328.2,81.8z"/>
	<path fill="#7A808C" d="M404.2,92.4c-1.9-0.9-4.1-1.4-6.2-2.1c-2.1-0.7-4.2-1.2-6.2-2c-1.7-0.7-2.8-2.6-2.6-4.5
		c0.2-2,1.3-3.2,3.1-3.9c1.4-0.5,2.8-0.6,4.2-0.4c3,0.3,4.7,2,5.3,4.9c0.1,0.7,0.2,1.5,0.4,2.2c2.2,0,4.4,0,6.6,0
		c0-3.9,0-7.8,0-11.7c-2.1,0-4.1,0-6.2,0c0,0.7-0.1,1.4-0.1,2.3c-0.5-0.4-0.9-0.6-1.2-0.9c-1.8-1.4-3.9-2.2-6.2-2.2
		c-1.1,0-2.3,0-3.4,0c-5.2,0.3-9.5,3.6-10.2,8.9c-0.6,4.8,0.8,8.9,5.6,11.1c1.6,0.7,3.3,1.2,5,1.7c2,0.6,4.1,1,6.1,1.6
		c2.2,0.7,3.7,2.7,3.7,4.9c0,2.2-1.4,4-3.8,4.5c-1.5,0.3-3.1,0.5-4.6,0.3c-3.4-0.5-5.2-2.8-5.3-5.7c0-0.7-0.1-1.3-0.2-2
		c-2.4,0-4.6,0-6.9,0c0,4.3,0,8.4,0,12.7c2.2,0,4.4,0,6.7,0c0-0.8,0-1.5,0-2c1.7,0.8,3.3,1.9,5,2.4c2.7,0.9,5.6,0.7,8.3,0
		c4.3-1,7.3-3.5,8.4-7.9C410.7,100,409.5,94.9,404.2,92.4z"/>
	<path fill="#7A808C" d="M467.9,105.6c0-4,0-8,0-11.9c0-3.2-1.3-5.8-4.2-7.3c-3.2-1.7-9.1-2.2-12.7,1.7c-0.3,0.3-0.6,0.6-0.9,0.9
		c-0.1,0-0.2-0.1-0.3-0.1c0-4.8,0-9.6,0-14.5c-3.8,0-7.4,0-11,0c0,1.7,0,3.4,0,5.2c1.2,0,2.3,0,3.4,0c0,9.3,0,18.4,0,27.7
		c-1.2,0-2.2,0-3.3,0c0,1.7,0,3.4,0,5c4.9,0,9.7,0,14.6,0c0-1.7,0-3.3,0-5.1c-1.2,0-2.3,0-3.4,0c0-3.9-0.2-7.7,0.1-11.5
		c0.3-3.3,2.7-5,6.1-4.8c2.3,0.1,3.8,1.3,3.9,3.6c0.2,4.2,0.1,8.4,0.1,12.5c0,0,0,0.1-0.2,0.2c-1,0-2.1,0-3.2,0c0,1.7,0,3.4,0,5.1
		c4.8,0,9.5,0,14.3,0c0-1.7,0-3.3,0-5.1c-1.1,0-2.1,0-3.2,0C467.9,106.5,467.9,106.1,467.9,105.6z"/>
	<path fill="#7A808C" d="M492.1,86.4c-4.4-1.9-8.8-1.8-13.2,0.1c-3,1.3-5.2,3.5-6.4,6.6c-1.3,3.4-1.4,6.8-0.5,10.3
		c0.9,3.5,3,6.1,6.3,7.7c3.7,1.8,7.6,2.2,11.5,1.2c3.8-1,6.8-3.1,8.5-6.7c1-2.1,1.5-4.4,1.4-6.7c0-0.7,0-1.3-0.1-2
		C499.1,92.1,496.8,88.4,492.1,86.4z M491.3,103.2c-1,3-3.1,4.4-6.1,4.2c-2.6-0.1-4.7-1.9-5.5-4.8c-0.3-1.2-0.5-2.7-0.5-4
		c0-1.3,0.4-3.2,1.1-4.7c1-2.4,3-3.5,5.6-3.5c2.5,0,4.2,1.3,5.2,3.5C492.3,97,492.4,100.2,491.3,103.2z"/>
	<path fill="#7A808C" d="M514.7,85c-0.9,0.2-2.6,0.3-4.1,0.7c-4,1.1-6.9,3.5-8.4,7.4c-1.2,3.2-1.3,6.5-0.6,9.8
		c0.6,2.8,2,5.1,4.3,6.9c4.8,3.7,12.8,4.1,17.9,0.7c3-2,4.7-4.8,5.4-8.3c0.7-3.8,0.4-7.4-1.6-10.8C524.8,86.8,520.5,85.2,514.7,85z
		 M521.6,99.4c-0.1,1.3-0.3,2.6-0.7,3.8c-1,2.9-3,4.4-5.9,4.3c-2.7-0.1-4.8-1.8-5.6-4.6c-0.4-1.3-0.5-2.6-0.6-3.4
		c0.1-2.4,0.3-4.1,1.1-5.7c1-2,2.7-3.1,5-3.3c2.5-0.1,4.3,0.8,5.5,3C521.4,95.4,521.7,97.4,521.6,99.4z"/>
	<path fill="#7A808C" d="M565.8,97c-1.2-0.3-2.4-0.6-3.6-0.9c-1.7-0.4-3.4-0.8-5.1-1.2c-0.9-0.3-1.5-0.9-1.6-1.9
		c-0.1-1,0.3-1.8,1.1-2.4c1.8-1.2,6.1-1.2,7.4,2.1c0.2,0.6,0.4,1.3,0.6,1.8c1.9,0,3.8,0,5.6,0c0-2.9,0-5.8,0-8.6c-1.9,0-3.7,0-5.5,0
		c0,0.7-0.1,1.4-0.1,2c-1.1-0.8-2.1-1.7-3.2-2.1c-2.6-1.2-5.4-0.9-8.1-0.2c-2.6,0.7-4.4,2.5-5.1,5.1c-0.3,1.1-0.4,2.3-0.4,3.5
		c0,3.1,1.9,5.6,5,6.5c1.8,0.5,3.7,0.8,5.5,1.3c1.2,0.3,2.4,0.6,3.5,1c1,0.4,1.5,1.3,1.6,2.4c0,1.1-0.5,1.9-1.5,2.4
		c-2.5,1.3-6,0.2-7.2-2.3c-0.3-0.7-0.5-1.5-0.8-2.3c-1.9,0-3.9,0-5.9,0c0,3.1,0,6.1,0,9.2c1.9,0,3.7,0,5.6,0c0-0.8,0.1-1.6,0.1-2.5
		c0.5,0.5,0.9,0.8,1.3,1.2c1.4,1.4,3.2,2,5.1,2.1c1.3,0,2.7,0,4-0.3c4.5-0.7,7-3.6,7.1-8.1C571.2,100.6,569.1,97.9,565.8,97z"/>
	<path fill="#7A808C" d="M431.4,103.2c-0.2,0.6-0.4,1.1-0.6,1.6c-0.5,1.4-1.5,2.3-2.9,2.6c-3.1,0.7-5.7-0.1-7-3.6
		c-1-2.6-1-5.4-0.4-8c0.6-2.6,2-4.6,4.9-5.1c2.4-0.3,4.7,0.4,5.5,3.1c0.3,0.8,0.4,1.7,0.6,2.6c2,0,4,0,6,0c0-3.5,0-7,0-10.5
		c-1.9,0-3.7,0-5.6,0c0,0.8,0,1.5,0,2.3c-0.1,0.1-0.2,0.1-0.3,0.2c-0.2-0.3-0.4-0.6-0.7-0.8c-0.9-0.6-1.8-1.5-2.8-1.8
		c-4.8-1.6-10.8-0.2-13.7,4.9c-2.6,4.5-2.8,9.3-1.2,14.2c1.1,3.2,3.1,5.8,6.3,7.1c4.2,1.7,8.4,1.8,12.6,0.1c3.5-1.4,5.6-4.9,5.5-8.7
		c-0.2,0-0.4-0.1-0.6-0.1C435.3,103.2,433.3,103.2,431.4,103.2z"/>
	<path fill="#7A808C" d="M541,74.3c-3.8,0-7.4,0-11.1,0c0,0.9,0,1.8,0,2.6c0,0.8,0,1.6,0,2.6c1.3,0,2.3,0,3.5,0c0,9.2,0,18.4,0,27.7
		c-1.2,0-2.3,0-3.4,0c0,1.8,0,3.4,0,5c4.8,0,9.5,0,14.3,0c0-1.7,0-3.3,0-5c-1.1,0-2.1,0-3.3,0C541,96.1,541,85.3,541,74.3z"/>
</g>
</svg>
