<?xml version="1.0" encoding="utf-8"?>
<!-- Generator: Adobe Illustrator 23.1.1, SVG Export Plug-In . SVG Version: 6.00 Build 0)  -->
<svg version="1.1" id="Layer_1" xmlns="http://www.w3.org/2000/svg" xmlns:xlink="http://www.w3.org/1999/xlink" x="0px" y="0px"
	 viewBox="0 0 788 150.5" enable-background="new 0 0 788 150.5" xml:space="preserve">
<g>
	<path fill="#044172" d="M231.6,103.1c0,15.9-13.8,26.9-33.8,26.9c-18.7,0-31.4-9.5-36.1-21.5l10.5-6.2c3.4,9.5,13.1,15.7,25.6,15.7
		c11,0,21.5-3.9,21.5-15c0-23.2-54.6-9.9-54.6-44.3c0-15,13.3-26.7,32-26.7c15.3,0,27.3,7.5,32.7,19.1l-10.3,6
		c-3.9-9.5-13.5-13.1-22.4-13.1c-9.7,0-19.6,4.7-19.6,14.8C177,82,231.6,68.7,231.6,103.1z"/>
	<path fill="#044172" d="M338.9,81.4c0,1.9-0.2,3.9-0.4,5.8h-82.1c2.6,19.1,17.4,30.8,37.2,30.8c14.8,0,25-6.9,30.1-15.9l10.8,6.4
		c-7.9,12.7-22.2,21.5-41.1,21.5c-29.5,0-49.7-20.7-49.7-49c0-27.5,19.8-49,48.8-49C321.2,32.1,338.9,55.8,338.9,81.4z M256.5,75.3
		h69.7c-2.6-20.6-17.6-31.2-33.6-31.2C272.9,44.1,258.9,57,256.5,75.3z"/>
	<path fill="#044172" d="M419.1,103.1c0,15.9-13.8,26.9-33.8,26.9c-18.7,0-31.4-9.5-36.1-21.5l10.5-6.2c3.4,9.5,13.1,15.7,25.6,15.7
		c11,0,21.5-3.9,21.5-15c0-23.2-54.6-9.9-54.6-44.3c0-15,13.3-26.7,32-26.7c15.3,0,27.3,7.5,32.7,19.1l-10.3,6
		c-3.9-9.5-13.5-13.1-22.4-13.1c-9.7,0-19.6,4.7-19.6,14.8C364.5,82,419.1,68.7,419.1,103.1z"/>
	<path fill="#044172" d="M529.6,34.3v93.5h-12.3v-18.3c-7.9,12.5-21.1,20.6-37.8,20.6c-26.4,0-48.2-21.3-48.2-49
		c0-27.7,21.9-49,48.2-49c16.6,0,29.9,8,37.8,20.6V34.3H529.6z M517.2,81.1c0-20.7-16.1-37-36.8-37s-36.8,16.3-36.8,37
		c0,20.7,16.1,37,36.8,37S517.2,101.8,517.2,81.1z"/>
	<path fill="#044172" d="M788,81.4c0,1.9-0.2,3.9-0.4,5.8h-82.1c2.6,19.1,17.4,30.8,37.2,30.8c14.8,0,25-6.9,30.1-15.9l10.8,6.4
		c-7.9,12.7-22.2,21.5-41.1,21.5c-29.5,0-49.7-20.7-49.7-49c0-27.5,19.8-49,48.8-49C770.2,32.1,788,55.8,788,81.4z M705.6,75.3h69.7
		c-2.6-20.6-17.6-31.2-33.6-31.2C722,44.1,708,57,705.6,75.3z"/>
	<path fill="#044172" d="M643.4,32.1h-1.1c-10.4,0-19.7,4.4-26.3,11.4c-1.3,1.4-2.8,3.4-3.7,5.3c-0.9-2-2.3-3.9-3.7-5.3
		c-6.6-7-16-11.4-26.3-11.4h-1.1c-20,0-36.2,16.2-36.2,36.2v59.5h12.3V68.3c0-13.5,10.9-24.4,24.4-24.4l0,0
		c13.5,0,24.6,10.9,24.6,24.4v59.5l0,0h11.8h0V68.3c0-13.5,11.2-24.4,24.6-24.4l0,0c13.5,0,24.4,10.9,24.4,24.4v59.5h12.3V68.3
		C679.6,48.3,663.4,32.1,643.4,32.1z"/>
	<g>
		<path fill="#FF6A5F" d="M112.8,9.2C106.1,3,97.4-0.3,88.3,0c-9.1,0.3-17.6,4.2-23.8,10.8l-1.4,1.5l0,0L73,23.1l0.6-0.6h0
			c0.4-0.4,1-1,1.8-1.8c3.4-3.3,7.7-5.6,12.4-6c5.6-0.4,10.9,1.4,14.9,5.2c7.8,7.3,8.3,19.7,1,27.5L77.8,75.3
			c-2.6,2.8-2.6,7.2,0,10.1c2.9,3.1,7.9,3.1,10.8,0l25.9-27.9C127.3,43.7,126.5,22,112.8,9.2z"/>
		<path fill="#6AB9F9" d="M23.4,19.9c-7.8,7.3-8.3,19.7-1,27.5l39.9,42.7c6.5,6.9,9.8,15.9,9.5,25.4c-0.3,9.4-4.3,18.2-11.3,24.7
			l-0.9,0.9c-6.6,6.2-15.1,9.5-24.1,9.5c-0.5,0-0.9,0-1.4,0c-9.5-0.4-18.3-4.4-24.7-11.4s-9.7-16.1-9.3-25.5
			c0.4-8.5,3.7-16.4,9.5-22.6c0.2-0.2,1-1,2-1.9c3-2.8,7.7-2.6,10.5,0.4c2.7,3,2.5,7.5-0.4,10.3c-1,1-1.8,1.8-2,2
			c-2.9,3.5-4.7,7.8-4.8,12.5c-0.3,5.5,1.7,10.9,5.5,14.9c3.7,4.1,8.9,6.5,14.5,6.7c5.5,0.2,10.9-1.8,14.9-5.6l1-0.8
			c4-3.8,6.4-8.9,6.6-14.4c0.2-5.5-1.8-10.8-5.5-14.9L11.7,57.4C-1.2,43.7-0.4,22,13.3,9.2C20,3,28.7-0.3,37.8,0
			C47,0.3,55.4,4.2,61.6,10.9l1.5,1.5L73,23.1l-0.2,0.2l-9.7,9.6L50.4,20.4h0c-3.5-3.5-8.1-5.5-13.1-5.7
			C32.1,14.5,27.1,16.4,23.4,19.9z"/>
	</g>
</g>
</svg>
